/* XPM */
static char *afaac946e9c74513a270cb3f3a05628f[] = {
/* columns rows colors chars-per-pixel */
"64 64 198 2 ",
"   c #1E349B",
".  c #294BA4",
"X  c #2746A2",
"o  c #3056A9",
"O  c #345DAB",
"+  c #2E52A7",
"@  c #3965AE",
"#  c #366BAE",
"$  c #3C6BB1",
"%  c #3B75B3",
"&  c #4175B4",
"*  c #447BB7",
"=  c #467EB8",
"-  c #487FB8",
";  c #6D28CF",
":  c #742DCF",
">  c #7C2CCF",
",  c #7120CF",
"<  c #692DD0",
"1  c #732DD0",
"2  c #792DD0",
"3  c #7B3BD3",
"4  c #6F6EC1",
"5  c #971CCD",
"6  c #A719CE",
"7  c #B618CD",
"8  c #A00CCC",
"9  c #8424CD",
"0  c #832CCF",
"q  c #8B2CCF",
"w  c #8E25CD",
"e  c #9225CD",
"r  c #9C25CD",
"t  c #932BCE",
"y  c #9B2BCE",
"u  c #842DD0",
"i  c #8D2ED0",
"p  c #9A37D2",
"a  c #9333CE",
"s  c #A42ACE",
"d  c #AB2ACD",
"f  c #A627CC",
"g  c #B426CD",
"h  c #BC25CC",
"j  c #B32ACD",
"k  c #BC2ACD",
"l  c #A233CE",
"z  c #B33CC9",
"x  c #A535D0",
"c  c #AD3BD1",
"v  c #AA36D1",
"b  c #B23DD0",
"n  c #D919CE",
"m  c #CD1FCA",
"M  c #C525CB",
"N  c #CB24CB",
"B  c #C42ACC",
"V  c #CC2ACC",
"C  c #DC25CA",
"Z  c #D329CB",
"A  c #DB29CB",
"S  c #D022C9",
"D  c #CA33CE",
"F  c #C738CF",
"G  c #D835CF",
"H  c #C43BD1",
"J  c #CA3DD1",
"K  c #D83FD1",
"L  c #E229CB",
"P  c #EB29CA",
"I  c #E221CC",
"U  c #8646D6",
"Y  c #994FD0",
"T  c #B542D2",
"R  c #BD45D4",
"E  c #BB4CD5",
"W  c #BA53D6",
"Q  c #B55CD9",
"!  c #B858D9",
"~  c #836BC8",
"^  c #8E6ACE",
"/  c #B563DB",
"(  c #B66EDE",
")  c #A97EE3",
"_  c #B97BE1",
"`  c #C342D2",
"'  c #C44BD4",
"]  c #C94ED4",
"[  c #CB53D6",
"{  c #C45BD8",
"}  c #C758D8",
"|  c #D35BD8",
" . c #E04CD3",
".. c #C667DB",
"X. c #D768DB",
"o. c #C173DF",
"O. c #DA75DE",
"+. c #E66CDC",
"@. c #D07DE1",
"#. c #388DB7",
"$. c #3EAABF",
"%. c #4581B9",
"&. c #4A84BA",
"*. c #4D8BBD",
"=. c #508EBE",
"-. c #5387BD",
";. c #4C95BE",
":. c #5191BF",
">. c #578DC2",
",. c #5394C1",
"<. c #569BC3",
"1. c #599EC5",
"2. c #5E94C2",
"3. c #4E92C0",
"4. c #669BC7",
"5. c #7A90CF",
"6. c #5BA3C6",
"7. c #5DA6C8",
"8. c #5FAAC9",
"9. c #59A8C6",
"0. c #5AB7CA",
"q. c #4BAFC3",
"w. c #62ADCB",
"e. c #65A7C9",
"r. c #75ACCE",
"t. c #7CABCE",
"y. c #75A5CD",
"u. c #64B4CD",
"i. c #6CB3CE",
"p. c #67BACF",
"a. c #68BACF",
"s. c #75B2CF",
"d. c #6ABED0",
"f. c #67BCD0",
"g. c #7AB3D1",
"h. c #75BBD2",
"j. c #79BCD3",
"k. c #75B5D0",
"l. c #7DAFD0",
"z. c #58C9CD",
"x. c #4FC2C8",
"c. c #6CC3D3",
"v. c #6FC8D5",
"b. c #64C9D0",
"n. c #73C5D4",
"m. c #7AC4D5",
"M. c #72CCD6",
"N. c #7ACAD7",
"B. c #74CFD8",
"V. c #7BCDD8",
"C. c #76D3D9",
"Z. c #79D5DA",
"A. c #76D9DB",
"S. c #7BDBDC",
"D. c #74D0D7",
"F. c #64DBD3",
"G. c #6CE3D7",
"H. c #7DE2DE",
"J. c #7BEADF",
"K. c #72F1DC",
"L. c #7FE4E0",
"P. c #83ACD0",
"I. c #8CBCD7",
"U. c #87B7D4",
"Y. c #95BCD8",
"T. c #AC80E3",
"R. c #C68CE4",
"E. c #E587E3",
"W. c #E597E7",
"Q. c #82C2D6",
"!. c #84CBD9",
"~. c #8CCEDB",
"^. c #8BD4DE",
"/. c #89D7DD",
"(. c #91D3DE",
"). c #A6C3DE",
"_. c #80E5DF",
"`. c #93DCE1",
"'. c #9BDCE3",
"]. c #97D7E0",
"[. c #AAD2E3",
"{. c #81E5E0",
"}. c #83EBE2",
"|. c #8BE8E3",
" X c #92E1E2",
".X c #9CE3E4",
"XX c #87F0E4",
"oX c #89F3E6",
"OX c #8DFBE9",
"+X c #81F9E4",
"@X c #93FFED",
"#X c #9CFFF3",
"$X c #A4E3E6",
"%X c #A9E9E9",
"&X c #B1EDEB",
"*X c #BEF0EE",
"=X c #C8EDF1",
"-X c None",
/* pixels */
"-X-X-X-X-X-X-X-X-X-X-X-X-X-X-X-X-X-X-X-X-X-X-X-X-X-X-X-X-X-X-X-X-X-X-X-X-X-X-X-X-X-X-X-X-X-X-X-X-X-X-X-X-X-X-X-X-X-X-X-X-X-X-X-X",
"-X-X-X-X-X-X-X-X-X-X-X-X-X-X-X-X-X-X-X-X-X-X-X-X-X-X-X-X-X-X-X-X-X-X-X-X-X-X-X-X-X-X-X-X-X-X-X-X-X-X-X-X-X-X-X-X-X-X-X-X-X-X-X-X",
"-X-X-X-X-X-X-X-X-X-X-X-X-X-X-X-X-X-X-X-X-X-X-X-X-X-X-X-X-X-X-X-X-X-X-X-X-X-X-X-X-X-X-X-X-X-X-X-X-X-X-X-X-X-X-X-X-X-X-X-X-X-X-X-X",
"-X-X-X-X-X-X-X-X-X-X-X-X-X-X-X-X-X-X-X-X-X-X-X-X-X-X-X-X-X-X-X-X-X-X-X-X-X-X-X-X-X-X-X-X-X-X-X-X-X-X-X-X-X-X-X-X-X-X-X-X-X-X-X-X",
"-X-X-X-X-X-X-X-X-X-X-X-X-X-X-X-X-X-X-X-X-X-X-X-X-X-X-X-X-X-X-X-X-X-X-X-X-X-X-X-X-X-X-X-X-X-X-X-X-X-X-X-X-X-X-X-X-X-X-X-X-X-X-X-X",
"-X-X-X-X-X-X-X-X-X-X-X-X-X-X-X-X-X-X-X-X-X-X-X-X-X-X-X-X-X-X-X-X-X-X-X-X-X-X-X-X-X-X-X-X-X-X-X-X-X-X-X-X-X-X-X-X-X-X-X-X-X-X-X-X",
"-X-X-X-X-X-X-X-X-X-X-X-X-X-X-X-X-X-X-X-X-X-X-X-X-X-X-X-X-X-X-X-X-X-X-X-X-X-X-X-X-X-X-X-X-X-X-X-X-X-X-X-X-X-X-X-X-X-X-X-X-X-X-X-X",
"-X-X-X-X-X-X-X-X-X-X-X-X-X-X-X-X-X-X-X-X-X-X-X-X-X-X-X-X-X-X-X-X-X-X-X-X-X-X-X-X-X-X-X-X-X-X-X-X-X-X-X-X-X-X-X-X-X-X-X-X-X-X-X-X",
"-X-X-X-X-X-X-X-X-X-X-X-X-X-X-X-X-X-X-X-X-X-X-X-X-X-X-X-X-X-X-X-X-X-X-X-X-X-X-X-X-X-X-X-X-X-X-X-X-X-X-X-X-X-X-X-X-X-X-X-X-X-X-X-X",
"-X-X-X-X-X-X-X-X-X-X-X-X-X-X-X-X-X-X-X-X-X-X-X-X-X-X-X-X-X-X-X-X-X-X-X-X-X-X-X-X-X-X-X-X-X-X-X-X-X-X-X-X-X-X-X-X-X-X-X-X-X-X-X-X",
"-X* = = &.*.3.,.<.1.9.8.w.u.p.f.c.c.v.B.C.C.C.-X-X-X-X-X-X-X-X-X-X-X-X-X-X-X-X-X-Xy y y s s s s d d j g g k k B B B M N V Z Z -X",
"-X& %.%.&.*.3.,.<.<.6.7.8.u.p.f.c.n.M.B.C.S.H.H.H.-X-X-X-X-X-X-X-X-X-X-X-X-X-Xt i t t y y s s d d j j g g k h h M M M V V V Z -X",
"-X% -.P.P.t.t.l.g.k.k.j.j.j.m.m.m.M.N.Z.Z.S.S.S.}.}.-X-X-X-X-X-X-X-X-X-X-X-Xq q t t t l l x c c T T R E ' ] } } | X.X.X.O.G S -X",
"-X-X* U.).Y.Y.Y.I.I.I.I.I.m.m.m.m.!.V.V.V.S.S._.{.}.oX-X-X-X-X-X-X-X-X-X-Xu q q t t y p x v b T E W { } ..| X.O.O.O.E.W.O.S -X-X",
"-X-X& 2.t.y.r.r.r.r.k.k.h.h.j.m.n.M.B.V.Z.S.S._.{.}.XXXX-X-X-X-X-X-X-X-X0 0 q q i t t l l l v c b b T R ' ' ] ] [ | | X.K m -X-X",
"-X-X-X* %.*.*.3.<.1.1.9.8.w.p.f.c.n.v.B.Z.Z.S.S.{.}.}.OX}.-X-X-X-X-X-Xu > u q q t t y y y s s s d f g g g h h h M M M m M -X-X-X",
"-X-X-X- *.*.3.,.<.1.6.8.w.u.a.d.d.n.v.B.Z.Z.S._.{.{.}.oXoX-X-X-X-X-X-X> 0 u q q i t t y y s s s d j j j k k k B B M V V V -X-X-X",
"-X-X-X-X&.=.>.<.<.6.7.8.8.p.a.f.c.n.M.B.Z._.XXXXOXOXOXoX@X}.-X-X-X-X0 2 0 > > 0 0 q a y y s s d d j j g j k k B B B M V -X-X-X-X",
"-X-X-X-X-X-X3.,.<.1.1.w.8.u.p.a.f.c.v.B.C.a.u.a.d.c.{.@X@XOX-X-X-X-X2 ; : q y s d d d y s s s d d j j j k k k B B D -X-X-X-X-X-X",
"-X-X-X-X-X-X-X-X-X-X-X-X-X-X-X-X-X-X-X-X-X-X  X X . O *.Z.#X@X-X-X-X< t k Z L L L P -X-X-X-X-X-X-X-X-X-X-X-X-X-X-X-X-X-X-X-X-X-X",
"-X-X-X-X-X-X-X-X-X-X-X-X-X-X-X-X-X-X-X-X-X-X-Xo o O o . + 6.@X-X-X, d L P A Z A A -X-X-X-X-X-X-X-X-X-X-X-X-X-X-X-X-X-X-X-X-X-X-X",
"-X-X-X-X-X-X-X-X-X-X-X-X-X-X-X-X-X-X-X-X-X-X-X-XO @ @ $ # + ;.-X-Xh P Z V Z Z A -X-X-X-X-X-X-X-X-X-X-X-X-X-X-X-X-X-X-X-X-X-X-X-X",
"-X-X-X-X-X-X-X-X-X-X-X-X-XL -X-X-X-X-X-X-X-X-X-X@ $ $ $ & & # 3.H I V V Z Z Z Z -X-X-X-X-X-X-X-X-X-X-X-X-X-X-X-X-X-X-X-X-X-X-X-X",
"-X-X-X-X-X-X-X-X-X-X-X-XA A  .K -X-X-X-X-X-X-X-X-X$ & & & = %.#.z n V V V Z Z -X-X-X-X-X-X-X-X-XD./. X-X-X-X-X-X-X-X-X-X-X-X-X-X",
"-X-X-X-X-X-X-X-X-X-X-X-XC A +.E.-X-X-X-X-X-X-X-X-X% & * = - &.#.4 n V V V D V -X-X-X-X-X-X-X-Xn.v.'.=X X-X-X-X-X-X-X-X-X-X-X-X-X",
"-X-X-X-X-X-X-X-X-X-X-XA A C K +.-X-X-X-X-X-X-X-X-X* * - &.&.-.*.;.z n M V V V -X-X-X-X-X-X-X-Xc.v.V.$X X-X-X-X-X-X-X-X-X-X-X-X-X",
"-X-X-X-X-X-X-X-X-X-X-XA A A A A -X-X-X-X-X-X-X-X-X-X- &.*.*.*.>.$.~ n M V V -X-X-X-X-X-X-X-X-Xf.c.v.B.C.-X-X-X-X-X-X-X-X-X-X-X-X",
"-X-X-X-X-X-X-X-X-X-X-XP A A A C -X-X-X-X-X-X-X-X-X-X&.-.*.:.,.<.q.<.B m M V -X-X-X-X-X-X-X-X-Xf.f.c.v.M.-X-X-X-X-X-X-X-X-X-X-X-X",
"-X-X-X-X-X-X-X-X-X-X-XZ L A A P -X-X-X-X-X-X-X-X-X-X-X=.,.,.<.<.1.q.^ n B -X-X-X-X-X-X-X-X-X-X-Xd.c.c.-X-X-X-X-X-X-X-X-X-X-X-X-X",
"-X-X-X-X-X-X-Xy t t u j L Z A L t 1 2 U -X-X-X-X-X-X-X3.,.<.1.1.9.0.4.M M -X-X-X-X-X-X= 2.4.-X-X-X-X-X-X-Xu.!./.-X-X-X-X-X-X-X-X",
"-X-X-X-X-X-Xy t t t u j L Z Z L y ; 2 T.) -X-X-X-X-X-X-X1.1.9.7.8.8.z.Y -X-X-X-X-X-X%.%.r.[.y.-X-X-X-X-Xp.c.'.=X/.-X-X-X-X-X-X-X",
"-X-X-X-X-X-Xy y t t u j A Z Z A y ; 2 U ) 3 -X-X-X-X-X-X6.9.7.w.u.u.z.y.-X-X-X-X-X-X&.-.:.U.U.-X-X-X-X-Xc.n.N.$X X-X-X-X-X-X-X-X",
"-X-X-X-X-X-Xy y t t u j Z V V Z t 1 2 1 3 1 -X-X-X-X-X-X4 x.w.u.u.p.a.b.-X-X-X-X-X-X*.:.,.1.6.-X-X-X-X-Xc.v.D.Z.S.-X-X-X-X-X-X-X",
"-X-X-X-X-X-X-Xt y i u v V V V V t 1 2 1 ; -X-X-X-X-X-X6 v u.u.u.p.p.f.c.n.-X-X-X-X-X=.,.<.<.9.-X-X-X-X-XB.M.C.A.S.-X-X-X-X-X-X-X",
"-X-X-X-X-X-X-Xy t t u d V B B V t 1 2 2 -X-X-X-X-X-X-Xs 7 4 z.f.d.d.n.n.M.-X-X-X-X-X-X<.1.7.-X-X-X-X-X-X-XS.S.S.-X-X-X-X-X-X-X-X",
"-X-X-X-X-X-X-X-X-X-X-Xk B k k B -X-X-X-X-X-X-X-X-X-Xy s 6 Y b.b.d.n.v.M.M.C.-X-X-X-X-X-X-X-X-X-X= 2.4.-X-X-X-X-X-X-X-X-X-X-X-X-X",
"-X-X-X-X-X-X-X-X-X-X-Xk j k j k -X-X-X-X-X-X-X-X-X-Xy x s 6 y.F.n.M.B.C.Z.Z.-X-X-X-X-X-X-X-X-X= &.t.[.y.-X-X-X-X-X-X-X-X-X-X-X-X",
"-X-X-X-X-X-X-X-X-X-X-Xj j d j j -X-X-X-X-X-X-X-X-X-Xt y y 8 Y G.M.B.B.Z.A.A.-X-X-X-X-X-X-X-X-X&.*.,.I.l.-X-X-X-X-X-X-X-X-X-X-X-X",
"-X-X-X-X-X-X-X-X-X-X-Xd d d d d -X-X-X-X-X-X-X-X-Xt t t y r r j.G.C.Z.A.S.{.{.-X-X-X-X-X-X-X-X*.=.,.1.6.-X-X-X-X-X-X-X-X-X-X-X-X",
"-X-X-X-X-X-X-X-X-X-X-X-Xx s s s -X-X-X-X-X-X-X-X-Xi i t t y 8 ^ K.Z.Z.H.H.{.{.-X-X-X-X-X-X-X-X=.,.<.<.9.-X-X-X-X-X-X-X-X-X-X-X-X",
"-X-X-X-X-X-X-X-X-X-X-X-Xy s y s -X-X-X-X-X-X-X-X0 q q t t t 5 a S.J.H.{.}.}.}.XX-X-X-X-X-X-X-X-X<.6.7.-X-X-X-X-X-X-X-X-X-X-X-X-X",
"-X-X-X-X-X-X-X-X-X-X-X-X-X-X-X-X-X-X-X-X-X-X-X-X0 q q q q i w -X-X+X{.{.}.}.}.oX-X-X-X-X-X-X-X-X-X-X-X-X-X-X-X-X-X-X-X-X-X-X-X-X",
"-X-X-X-X-X-X-X-X-X-X-X-X-X-X-X-X-X-X-X-X-X-X-Xu 0 0 q u 0 > h -X-X0.@XoX}.XXoXoXOX-X-X-X-X-X-X-X-X-X-X-X-X-X-X-X-X-X-X-X-X-X-X-X",
"-X-X-X-X-X-X-X-X-X-X-X-X-X-X-X-X-X-X-X-X-X-X-X2 > 2 2 1 0 B I -X-X% <.oX@X@XOXOX@X-X-X-X-X-X-X-X-X-X-X-X-X-X-X-X-X-X-X-X-X-X-X-X",
"-X-X-X-X-X-X-X-X-X-X-X-X-X-X-X-X-X-X-X-X-X-X< < < 2 q d A P -X-X-X-XO = c.}.@X@X@X#X-X-X-X-X-X-X-X-X-X-X-X-X-X-X-X-X-X-X-X-X-X-X",
"-X-X-X-X-Xt y y x s s d j v j k k k B B B k j k h D A P L Z -X-X-X-X%.$ $ - 1.8.w.w.u.7.7.w.w.p.a.d.c.c.v.v.D.Z.S.S.S.-X-X-X-X-X",
"-X-X-X-Xi y y x s d d j j k k k B B V V V A A L P L A A L -X-X-X-X-X-X& = = * = &.&.*.<.1.6.8.w.u.u.a.d.c.n.v.D.D.Z.S.H.-X-X-X-X",
"-X-X-Xt t y r r s s d j j j k k B B B V V V Z Z Z A A A A -X-X-X-X-X-X= * &.-.*.:.,.<.6.6.7.8.w.u.p.d.f.n.v.B.D.C.A.S.H.{.-X-X-X",
"-X-Xi w t r r r r f f d g g h k B B M V V V Z Z Z A A A -X-X-X-X-X-X-X-X* %.-.*.:.,.<.1.6.6.8.u.w.p.p.d.c.c.v.D.D.A.A.H.H.L.-X-X",
"-X-X9 Y ( / Q Q ! W W E R R H H J D D D V D Z Z Z A L Z -X-X-X-X-X-X-X-X&.= *.=.:.,.<.6.7.w.i.i.h.h.m.N.!.^./.`.`. X.X%X|.J.-X-X",
"-X9 w _ R.R._ o.o.....{ { ' ' ' ` ` J D D Z Z Z A A Z -X-X-X-X-X-X-X-X-X-X&.&.=.:.,.<.4.e.e.i.k.m.Q.!.~.(.].'.$X%X%X&X*X&X{.}.-X",
"-X9 p _ ( / / Q ! W W W E ' ` ` H F D D Z V V Z A Z -X-X-X-X-X-X-X-X-X-X-X-X*.*.:.<.<.6.e.e.i.i.h.j.m.!.!.^.(.`.'..X$X%X&X}.}.-X",
"-Xu i e t r y s r d s j j j k k B B M M V Z Z Z -X-X-X-X-X-X-X-X-X-X-X-X-X-X-X-X:.,.<.<.6.7.8.w.u.u.a.f.c.v.M.D.C.A.S.H.L.J.}.-X",
"-Xu i i e t r y s s f j j g k h k B M D V V -X-X-X-X-X-X-X-X-X-X-X-X-X-X-X-X-X-X-X-X1.1.6.7.8.u.u.a.p.c.c.v.M.D.Z.A.S.H.L.L.XX-X",
"-X-X-X-X-X-X-X-X-X-X-X-X-X-X-X-X-X-X-X-X-X-X-X-X-X-X-X-X-X-X-X-X-X-X-X-X-X-X-X-X-X-X-X-X-X-X-X-X-X-X-X-X-X-X-X-X-X-X-X-X-X-X-X-X",
"-X-X-X-X-X-X-X-X-X-X-X-X-X-X-X-X-X-X-X-X-X-X-X-X-X-X-X-X-X-X-X-X-X-X-X-X-X-X-X-X-X-X-X-X-X-X-X-X-X-X-X-X-X-X-X-X-X-X-X-X-X-X-X-X",
"-X-X-X-X-X-X-X-X-X-X-X-X-X-X-X-X-X-X-X-X-X-X-X-X-X-X-X-X-X-X-X-X-X-X-X-X-X-X-X-X-X-X-X-X-X-X-X-X-X-X-X-X-X-X-X-X-X-X-X-X-X-X-X-X",
"-X-X-X-X-X-X-X-X-X-X-X-X-X-X-X-X-X-X-X-X-X-X-X-X-X-X-X-X-X-X-X-X-X-X-X-X-X-X-X-X-X-X-X-X-X-X-X-X-X-X-X-X-X-X-X-X-X-X-X-X-X-X-X-X",
"-X-X-X-X-X-X-X-X-X-X-X-X-X-X-X-X-X-X-X-X-X-X-X-X-X-X-X-X-X-X-X-X-X-X-X-X-X-X-X-X-X-X-X-X-X-X-X-X-X-X-X-X-X-X-X-X-X-X-X-X-X-X-X-X",
"-X-X-X-X-X-X-X-X-X-X-X-X-X-X-X-X-X-X-X-X-X-X-X-X-X-X-X-X-X-X-X-X-X-X-X-X-X-X-X-X-X-X-X-X-X-X-X-X-X-X-X-X-X-X-X-X-X-X-X-X-X-X-X-X",
"-X-X-X-X-X-X-X-X-X-X-X-X-X-X-X-X-X-X-X-X-X-X-X-X-X-X-X-X-X-X-X-X-X-X-X-X-X-X-X-X-X-X-X-X-X-X-X-X-X-X-X-X-X-X-X-X-X-X-X-X-X-X-X-X",
"-X-X-X-X-X-X-X-X-X-X-X-X-X-X-X-X-X-X-X-X-X-X-X-X-X-X-X-X-X-X-X-X-X-X-X-X-X-X-X-X-X-X-X-X-X-X-X-X-X-X-X-X-X-X-X-X-X-X-X-X-X-X-X-X",
"-X-X-X-X-X-X-X-X-X-X-X-X-X-X-X-X-X-X-X-X-X-X-X-X-X-X-X-X-X-X-X-X-X-X-X-X-X-X-X-X-X-X-X-X-X-X-X-X-X-X-X-X-X-X-X-X-X-X-X-X-X-X-X-X",
"-X-X-X-X-X-X-X-X-X-X-X-X-X-X-X-X-X-X-X-X-X-X-X-X-X-X-X-X-X-X-X-X-X-X-X-X-X-X-X-X-X-X-X-X-X-X-X-X-X-X-X-X-X-X-X-X-X-X-X-X-X-X-X-X"
};
