/* XPM */
static char *_ba901c014204987a1e3c73260847089[] = {
/* columns rows colors chars-per-pixel */
"16 16 111 2 ",
"   c #073092",
".  c #357BB1",
"X  c #4B7DB8",
"o  c #4B7EB8",
"O  c #507EB9",
"+  c #761FCF",
"@  c #6625D1",
"#  c #7F27D2",
"$  c #7532D0",
"%  c #9F08CD",
"&  c #9F19C9",
"*  c #9B1DCA",
"=  c #A51DCE",
"-  c #8B2FCF",
";  c #9424CC",
":  c #952CCF",
">  c #962FCE",
",  c #992CCF",
"<  c #8D35D1",
"1  c #8D37D2",
"2  c #AC20CE",
"3  c #A827CE",
"4  c #AE2CCC",
"5  c #AC2ECF",
"6  c #B32CCD",
"7  c #BA2BCC",
"8  c #BE29CD",
"9  c #AE3FC6",
"0  c #A530CF",
"q  c #BC31D1",
"w  c #BC36D0",
"e  c #B538D0",
"r  c #B13FD1",
"t  c #BF3FD2",
"y  c #CB00C8",
"u  c #CD16C9",
"i  c #E51FC8",
"p  c #FF16C9",
"a  c #FF00D2",
"s  c #CA24CE",
"d  c #C62FCD",
"f  c #CF29CC",
"g  c #D029CC",
"h  c #D229CC",
"j  c #DF29CA",
"k  c #C533CE",
"l  c #D432CD",
"z  c #D431CE",
"x  c #C835D4",
"c  c #C33ED1",
"v  c #F420CB",
"b  c #FF2BCC",
"n  c #8F4CD1",
"m  c #AB4ED6",
"M  c #B74DD5",
"N  c #B663DB",
"B  c #C64DD5",
"V  c #D04DD4",
"C  c #D662DA",
"Z  c #2794AD",
"A  c #2C94B4",
"S  c #3B93BA",
"D  c #4C88BB",
"F  c #4990C1",
"G  c #5596C2",
"H  c #5991C2",
"J  c #519CC6",
"K  c #7197CB",
"L  c #7B94CD",
"P  c #4BABC4",
"I  c #5AA1C4",
"U  c #5EAAC9",
"Y  c #62A5CA",
"T  c #6CA1C9",
"R  c #62AAC9",
"E  c #67AECB",
"W  c #67AECC",
"Q  c #6AAACB",
"!  c #70B4CF",
"~  c #6FB8D1",
"^  c #6DBBD2",
"/  c #71BFD1",
"(  c #76BFD3",
")  c #42C3C3",
"_  c #68C5D0",
"`  c #6EC7D4",
"'  c #6AC8D2",
"]  c #74C3D4",
"[  c #7BC3D5",
"{  c #79C4D5",
"}  c #74CAD6",
"|  c #72D1D8",
" . c #7FD0DA",
".. c #77DADB",
"X. c #7BDADC",
"o. c #7FDEDD",
"O. c #59E9D2",
"+. c #5AEFD8",
"@. c #75FBE0",
"#. c #81ABD0",
"$. c #88D2DC",
"%. c #81EBE1",
"&. c #86EDE3",
"*. c #8AEDE3",
"=. c #89ECE4",
"-. c #91E0E2",
";. c #9DE3E5",
":. c #82FBE4",
">. c #95FFF0",
",. c #99FFF6",
"<. c None",
/* pixels */
"<.<.<.<.<.<.<.<.<.<.<.<.<.<.<.<.",
"<.<.<.<.<.<.<.<.<.<.<.<.<.<.<.<.",
"o T Q ~ } X.<.<.<.<.: 0 e c V l ",
"o #.! ' ] &.>.<.<.+ - 5 q B C l ",
"<.S P W +._ ~ <.<.* 2 = 4 y u <.",
"<.<.<.<.<.<.  F x p <.<.<.<.<.<.",
"<.<.<.b <.<.Z A 9 a <.<.%.<.<.<.",
"<.<.> i # <.<.) K <.<.I <.{ <.<.",
"<.<., g $ <.<.L O.<.<.H <.o.<.<.",
"<.<.<.6 <.<.% n @.:.<.<.O <.<.<.",
"<.<.<.<.<.<.@ & [ ,.<.<.<.<.<.<.",
"<.; 3 8 f 7 s <.<.J Y U ` | ..<.",
"1 N M c k j v <.<.. D W ( $.;.*.",
"1 m r w d g <.<.<.<.G R /  .-.*.",
"<.<.<.<.<.<.<.<.<.<.<.<.<.<.<.<.",
"<.<.<.<.<.<.<.<.<.<.<.<.<.<.<.<."
};
