/* XPM */
static char *_3baadbb18f04bbde312ba17aa2f0a20[] = {
/* columns rows colors chars-per-pixel */
"32 32 163 2 ",
"   c #223F9F",
".  c #2F69AC",
"X  c #3763AD",
"o  c #3170AF",
"O  c #3C69B1",
"+  c #3978B3",
"@  c #4375B4",
"#  c #467CB7",
"$  c #457FB8",
"%  c #527FBA",
"&  c #781ECE",
"*  c #7C20CE",
"=  c #6D2DD0",
"-  c #7C2CD0",
";  c #6E3AD3",
":  c #7236D1",
">  c #8E1BCA",
",  c #941FCB",
"<  c #A50BCD",
"1  c #AD16CD",
"2  c #B31DCB",
"3  c #8520CF",
"4  c #842CCF",
"5  c #8B2DCF",
"6  c #8F26CC",
"7  c #942BCE",
"8  c #9B2CCE",
"9  c #9230CF",
"0  c #9F24D0",
"q  c #9135D1",
"w  c #A324CD",
"e  c #A42BCE",
"r  c #AC2ACD",
"t  c #AB23CB",
"y  c #B624CC",
"u  c #BC23CB",
"i  c #B52ACD",
"p  c #BB29CC",
"a  c #B139CF",
"s  c #A835D1",
"d  c #BA3BD2",
"f  c #B03FD2",
"g  c #C31CC9",
"h  c #D01ACB",
"j  c #F000CD",
"k  c #E81FCD",
"l  c #E413D0",
"z  c #CA27CC",
"x  c #C429CC",
"c  c #CC2BCC",
"v  c #C227CB",
"b  c #D329CB",
"n  c #DB29CB",
"m  c #DF22CC",
"M  c #CA33CE",
"N  c #C534CE",
"B  c #D333CF",
"V  c #C036D0",
"C  c #C83FD1",
"Z  c #C03ED1",
"A  c #E425CB",
"S  c #EF21CC",
"D  c #E529CA",
"F  c #EA29CA",
"G  c #F228CA",
"H  c #E631CF",
"J  c #9B42CE",
"K  c #9A52C7",
"L  c #8556DA",
"P  c #925BD7",
"I  c #AC4AD6",
"U  c #B343D3",
"Y  c #B849D3",
"T  c #A956D9",
"R  c #BE67DB",
"E  c #BF71DF",
"W  c #C846D3",
"Q  c #C252D7",
"!  c #C55CD9",
"~  c #D552D6",
"^  c #D166DA",
"/  c #D870DD",
"(  c #E464D9",
")  c #3F80B8",
"_  c #3E84B7",
"`  c #309AB6",
"'  c #3DA7BB",
"]  c #4680B7",
"[  c #4781B9",
"{  c #4C84BB",
"}  c #4B8CBD",
"|  c #518ABD",
" . c #5090BF",
".. c #44A2BE",
"X. c #5395C0",
"o. c #549BC3",
"O. c #5A9BC4",
"+. c #5A93C2",
"@. c #7687CA",
"#. c #6899C6",
"$. c #56A6C5",
"%. c #5CA5C7",
"&. c #5DA7C8",
"*. c #5EABC9",
"=. c #56B8CA",
"-. c #60A7C9",
";. c #6DA2CB",
":. c #62ABCA",
">. c #6DABCC",
",. c #63B3CD",
"<. c #6AB0CD",
"1. c #65BCCF",
"2. c #71B4CF",
"3. c #7AA7D2",
"4. c #6FB6D0",
"5. c #67BAD0",
"6. c #6CBCD1",
"7. c #71BED2",
"8. c #42C4C6",
"9. c #57C6CC",
"0. c #5ED4CF",
"q. c #6CC4D2",
"w. c #69CAD3",
"e. c #73C5D5",
"r. c #7BC3D5",
"t. c #72CCD7",
"y. c #77CED9",
"u. c #7ACED9",
"i. c #7BC8D6",
"p. c #75D4D9",
"a. c #79D6DA",
"s. c #7BDCDC",
"d. c #72DBDA",
"f. c #68E6D7",
"g. c #7DE2DE",
"h. c #72E1DB",
"j. c #72F7DE",
"k. c #7BECE1",
"l. c #83AED1",
"z. c #83BBD5",
"x. c #88B3D3",
"c. c #C88EE5",
"v. c #E28DE4",
"b. c #86CAD9",
"n. c #84D3DD",
"m. c #83DADD",
"M. c #90D3DE",
"N. c #A0C1DB",
"B. c #8CDCE0",
"V. c #9BDBE3",
"C. c #A3DEE5",
"Z. c #83E7E1",
"A. c #84ECE3",
"S. c #98E6E4",
"D. c #8CF8E7",
"F. c #8BFFE9",
"G. c #89F4E6",
"H. c #91FFED",
"J. c #9AFFF2",
"K. c #A7E4E8",
"L. c #A5E3E7",
"P. c #B9EDED",
"I. c None",
/* pixels */
"I.I.I.I.I.I.I.I.I.I.I.I.I.I.I.I.I.I.I.I.I.I.I.I.I.I.I.I.I.I.I.I.",
"I.I.I.I.I.I.I.I.I.I.I.I.I.I.I.I.I.I.I.I.I.I.I.I.I.I.I.I.I.I.I.I.",
"I.I.I.I.I.I.I.I.I.I.I.I.I.I.I.I.I.I.I.I.I.I.I.I.I.I.I.I.I.I.I.I.",
"I.I.I.I.I.I.I.I.I.I.I.I.I.I.I.I.I.I.I.I.I.I.I.I.I.I.I.I.I.I.I.I.",
"I.I.I.I.I.I.I.I.I.I.I.I.I.I.I.I.I.I.I.I.I.I.I.I.I.I.I.I.I.I.I.I.",
"I.[ |  .o.&.,.5.q.t.a.s.I.I.I.I.I.I.I.I.7 8 8 e r i p v x z c I.",
"I.#.N.x.z.z.z.r.i.u.a.g.A.I.I.I.I.I.I.4 5 8 s f Y Q ! ^ / v.~ I.",
"I.{ ;.;.>.<.4.7.e.u.a.s.A.G.I.I.I.I.4 5 7 8 s s a d Z W W ~ B I.",
"I.I.] } X.$.=.9.e.t.a.D.H.J.H.I.I.* = - 4 7 e r 1 2 y u g g I.I.",
"I.I.I.I.I.I.I.I.I.I.I.$ [ -.H.I.I.& r x x I.I.I.I.I.I.I.I.I.I.I.",
"I.I.I.I.I.I.I.I.I.I.I.I.    + I.I.h F F I.I.I.I.I.I.I.I.I.I.I.I.",
"I.I.I.I.I.I.A H I.I.I.I.O @ . + B k c b I.I.I.I.g.I.I.I.I.I.I.I.",
"I.I.I.I.I.I.n ( I.I.I.I.I.# { ` K l c I.I.I.I.I.n.K.I.I.I.I.I.I.",
"I.I.I.I.I.I.A A I.I.I.I.I.{ | ..+.h z I.I.I.I.I.q.a.I.I.I.I.I.I.",
"I.I.I.I.4 e F F 6 ; I.I.I.' o.O.8.K j I.I.I.% I.I.I.I.i.I.I.I.I.",
"I.I.I.8 4 8 D n * L P I.I.I.$.&.9.;.I.I.I.$ l.>.I.I.1.C.I.I.I.I.",
"I.I.I.8 5 8 b c 5 = : I.I.I.@.9.<.w.I.I.I. .o.-.I.I.a.a.I.I.I.I.",
"I.I.I.I.I.8 c c 5 I.I.I.I.1 J 0.q.e.p.I.I.I.,.I.I.I.I.Z.I.I.I.I.",
"I.I.I.I.I.I.i p I.I.I.I.I.8 < 3.f.y.a.I.I.I.I.I.#.l.I.I.I.I.I.I.",
"I.I.I.I.I.I.r e I.I.I.I.5 9 < P j.a.g.Z.I.I.I.I.X.&.I.I.I.I.I.I.",
"I.I.I.I.I.I.7 7 I.I.I.I.5 5 3 6 m.F.A.A.I.I.I.I.X.I.I.I.I.I.I.I.",
"I.I.I.I.I.I.I.I.I.I.I.I.= = 0 I.I.h.J.J.I.I.I.I.I.I.I.I.I.I.I.I.",
"I.I.I.I.I.I.I.I.I.I.I.5 8 p S I.I.o -.y.n.I.I.I.I.I.I.I.I.I.I.I.",
"I.I., , w r y u v z b D F G m I.I._ X @ [ X.%.*.,.1.q.w.p.d.I.I.",
"I.q T I U U d d N c c b n n I.I.I.I.[ { X.O.-.,.6.e.i.n.B.S.Z.I.",
"I.T c.E R ! Q W W M c b n I.I.I.I.I.I.|  .O.:.2.7.b.M.V.K.P.S.k.",
"4 5 7 e e r y p x x c c I.I.I.I.I.I.I.I.+.o.&.:.4.6.q.p.a.s.Z.G.",
"I.I.I.I.I.I.I.I.I.I.I.I.I.I.I.I.I.I.I.I.I.I.I.I.I.I.I.I.I.I.I.I.",
"I.I.I.I.I.I.I.I.I.I.I.I.I.I.I.I.I.I.I.I.I.I.I.I.I.I.I.I.I.I.I.I.",
"I.I.I.I.I.I.I.I.I.I.I.I.I.I.I.I.I.I.I.I.I.I.I.I.I.I.I.I.I.I.I.I.",
"I.I.I.I.I.I.I.I.I.I.I.I.I.I.I.I.I.I.I.I.I.I.I.I.I.I.I.I.I.I.I.I.",
"I.I.I.I.I.I.I.I.I.I.I.I.I.I.I.I.I.I.I.I.I.I.I.I.I.I.I.I.I.I.I.I."
};
